<svg width="144" height="177.569" xmlns="http://www.w3.org/2000/svg" xmlns:xlink="http://www.w3.org/1999/xlink">
	<defs>
		<linearGradient gradientTransform="scale(1.02813 -1.02813) rotate(65 -830.492 7208.067)" y2="2496.689"
						x2="-6636.237" y1="2774.3" x1="-6873.648" gradientUnits="userSpaceOnUse" id="a">
			<stop stop-color="#f59723" offset="0"/>
			<stop stop-color="#f69822" offset="0.312"/>
			<stop stop-color="#e87726" offset="0.838"/>
		</linearGradient>
		<linearGradient gradientTransform="scale(1.02813 -1.02813) rotate(65 -830.492 7208.067)" y2="2804.961"
						x2="-6936.925" y1="2804.961" x1="-8630.72" gradientUnits="userSpaceOnUse" id="b">
			<stop stop-color="#9c2063" offset="0.323"/>
			<stop stop-color="#c82037" offset="0.63"/>
			<stop stop-color="#cc2135" offset="0.751"/>
			<stop stop-color="#e87726" offset="1"/>
		</linearGradient>
		<linearGradient gradientTransform="scale(1.02813 -1.02813) rotate(65 -830.492 7208.067)" y2="2635.284"
						x2="-7416.919" y1="2635.284" x1="-8426.256" gradientUnits="userSpaceOnUse" id="c">
			<stop stop-color="#282661" offset="0"/>
			<stop stop-color="#662e8c" offset="0.095"/>
			<stop stop-color="#9e2064" offset="0.788"/>
			<stop stop-color="#cc2032" offset="0.949"/>
		</linearGradient>
		<linearGradient gradientTransform="scale(1.02813 -1.02813) rotate(65 -830.492 7208.067)" y2="2820.86"
						x2="-6841.793" y1="2820.86" x1="-8535.588" gradientUnits="userSpaceOnUse" id="d">
			<stop stop-color="#9c2063" offset="0.323"/>
			<stop stop-color="#c82037" offset="0.63"/>
			<stop stop-color="#cc2135" offset="0.751"/>
			<stop stop-color="#e87726" offset="1"/>
		</linearGradient>
		<linearGradient gradientTransform="scale(1.02813 -1.02813) rotate(65 -830.492 7208.067)" y2="2797.879"
						x2="-7521.917" y1="2797.879" x1="-8412.058" gradientUnits="userSpaceOnUse" id="e">
			<stop stop-color="#282661" offset="0"/>
			<stop stop-color="#662e8c" offset="0.095"/>
			<stop stop-color="#9e2064" offset="0.788"/>
			<stop stop-color="#cc2032" offset="0.949"/>
		</linearGradient>
		<linearGradient gradientTransform="scale(1.02813 -1.02813) rotate(65 -830.492 7208.067)" y2="2645.49"
						x2="-6841.793" y1="2645.49" x1="-8535.588" gradientUnits="userSpaceOnUse" id="f">
			<stop stop-color="#9c2063" offset="0.323"/>
			<stop stop-color="#c82037" offset="0.63"/>
			<stop stop-color="#cc2135" offset="0.751"/>
			<stop stop-color="#e87726" offset="1"/>
		</linearGradient>
		<linearGradient gradientTransform="scale(1.02813 -1.02813) rotate(65 -830.492 7208.067)" y2="2654.265"
						x2="-6946.865" y1="2654.265" x1="-8640.659" gradientUnits="userSpaceOnUse" id="g">
			<stop stop-color="#9c2063" offset="0.323"/>
			<stop stop-color="#c82037" offset="0.63"/>
			<stop stop-color="#cc2135" offset="0.751"/>
			<stop stop-color="#e87726" offset="1"/>
		</linearGradient>
		<linearGradient gradientTransform="scale(1.02813 -1.02813) rotate(65 -830.492 7208.067)" y2="2593.446"
						x2="-6841.792" y1="2593.446" x1="-8535.589" gradientUnits="userSpaceOnUse" id="h">
			<stop stop-color="#9c2063" offset="0.323"/>
			<stop stop-color="#c82037" offset="0.63"/>
			<stop stop-color="#cc2135" offset="0.751"/>
			<stop stop-color="#e87726" offset="1"/>
		</linearGradient>
		<linearGradient gradientTransform="scale(1.02813 -1.02813) rotate(65 -830.492 7208.067)" y2="2599.324"
						x2="-6841.792" y1="2599.324" x1="-8535.589" gradientUnits="userSpaceOnUse" id="i">
			<stop stop-color="#9c2063" offset="0.323"/>
			<stop stop-color="#c82037" offset="0.63"/>
			<stop stop-color="#cc2135" offset="0.751"/>
			<stop stop-color="#e87726" offset="1"/>
		</linearGradient>
		<linearGradient gradientTransform="scale(1.02813 -1.02813) rotate(65 -830.492 7208.067)" y2="2600.552"
						x2="-7209.654" y1="2600.552" x1="-7584.039" gradientUnits="userSpaceOnUse" id="j">
			<stop stop-color="#9c2063" offset="0.323"/>
			<stop stop-color="#c82037" offset="0.63"/>
			<stop stop-color="#cc2135" offset="0.751"/>
			<stop stop-color="#e87726" offset="1"/>
		</linearGradient>
		<linearGradient xlink:href="#a" id="k" x1="0.16379" y1="0.63738" x2="1.59355" y2="0.20053"/>
		<linearGradient xlink:href="#b" id="l" x1="-2.1813" y1="3.94457" x2="0.74616" y2="0.13781"/>
		<linearGradient xlink:href="#c" id="m" x1="-0.20836" y1="1.92626" x2="1.2506" y2="-1.36452"/>
		<linearGradient xlink:href="#d" id="n" x1="-0.80104" y1="1.70496" x2="1.46068" y2="-0.44353"/>
		<linearGradient xlink:href="#e" id="o" x1="-0.18659" y1="0.77366" x2="1.64645" y2="-0.41413"/>
		<linearGradient xlink:href="#f" id="p" x1="-0.34885" y1="1.87792" x2="1.1062" y2="-0.51161"/>
		<linearGradient xlink:href="#g" id="q" x1="-1.30011" y1="4.65481" x2="0.66351" y2="0.17233"/>
		<linearGradient xlink:href="#h" id="r" x1="-45.23546" y1="654.0531" x2="28.36113" y2="-398.13616"/>
		<linearGradient xlink:href="#i" id="s" x1="-159.33091" y1="2124.45127" x2="78.07463" y2="-1032.11653"/>
		<linearGradient xlink:href="#j" id="t" x1="-1088.10584" y1="3929.0101" x2="1080.51092" y2="-3922.09455"/>
		<linearGradient xlink:href="#h" id="B" x1="-45.23546" y1="654.0531" x2="28.36113" y2="-398.13616"/>
		<linearGradient xlink:href="#i" id="C" x1="-159.33091" y1="2124.45127" x2="78.07463" y2="-1032.11653"/>
		<linearGradient xlink:href="#j" id="D" x1="-1088.10584" y1="3929.0101" x2="1080.51092" y2="-3922.09455"/>
	</defs>
	<g>
		<title>background</title>
		<rect fill="none" id="canvas_background" height="179.569" width="146" y="-1" x="-1"/>
	</g>
	<g>
		<title>Layer 1</title>
		<path id="svg_1" transform="translate(-0.07400000095367432,0.00800000037997961) scale(0.10592000186443329) "
			  fill="url(#k)"
			  d="m991.00936,-20.22326c-27.1,16 -72.2,61.3 -125.8,127l49.3,93.2c34.7,-49.5 69.9,-94.2 105.4,-132.3c2.8,-3 4.1,-4.4 4.1,-4.4c-1.3,1.4 -2.8,3 -4.1,4.4c-11.5,12.6 -46.4,53.4 -99,134.2c50.7,-2.5 128.5,-12.9 192,-23.7c19,-105.9 -18.5,-154.3 -18.5,-154.3s-47.6,-77 -103.4,-44.1z"/>
		<path id="svg_2" fill="none"
			  d="m96.042,54.197c0.032,-0.01 0.074,-0.01 0.116,-0.021l-0.752,0.085l-0.127,0.063c0.244,-0.053 0.509,-0.095 0.763,-0.127zm-5.349,17.689c-0.424,0.096 -0.858,0.17 -1.303,0.244c0.445,-0.074 0.879,-0.159 1.303,-0.244zm-36.29,39.669c0.053,-0.137 0.106,-0.296 0.159,-0.434c1.154,-3.04 2.298,-5.995 3.421,-8.877c1.26,-3.23 2.51,-6.355 3.76,-9.384a879.56,879.56 0 0 1 3.857,-9.27a544.935,544.935 0 0 1 3.93,-9.046a591.173,591.173 0 0 1 3.093,-6.864c0.339,-0.741 0.678,-1.472 1.017,-2.192a414.66,414.66 0 0 1 1.98,-4.216c0.604,-1.26 1.197,-2.5 1.801,-3.729c0.201,-0.402 0.392,-0.805 0.593,-1.207c0.032,-0.064 0.064,-0.127 0.096,-0.202l-0.646,0.064l-0.509,-1.006c-0.053,0.095 -0.095,0.2 -0.148,0.296c-0.911,1.833 -1.833,3.665 -2.733,5.519c-0.52,1.08 -1.038,2.16 -1.557,3.23a643.202,643.202 0 0 0 -4.216,9.068a726.095,726.095 0 0 0 -4.12,9.279a736.497,736.497 0 0 0 -3.877,9.141c-1.26,3.04 -2.5,6.07 -3.708,9.067a730.917,730.917 0 0 0 -3.665,9.322c-0.275,0.699 -0.53,1.387 -0.805,2.076a762.835,762.835 0 0 0 -2.785,7.351l0.805,1.589l0.72,-0.074c0.021,-0.074 0.053,-0.138 0.074,-0.223c1.176,-3.156 2.33,-6.26 3.464,-9.279l-0.001,0.001z"/>
		<path id="svg_3" fill="#bd202e"
			  d="m87.324,80.795c-0.667,0.116 -1.345,0.243 -2.055,0.36c0,0 -0.01,0 -0.01,0.01l1.059,-0.158c0.328,-0.075 0.667,-0.138 1.006,-0.212z"/>
		<path id="svg_4" fill="#bd202e" opacity="0.35"
			  d="m87.324,80.795c-0.667,0.116 -1.345,0.243 -2.055,0.36c0,0 -0.01,0 -0.01,0.01l1.059,-0.158c0.328,-0.075 0.667,-0.138 1.006,-0.212z"/>
		<path id="svg_5" fill="#bd202e"
			  d="m89.072,72.162s0,0.01 0,0c-0.01,0 -0.01,0 -0.01,0.01a3.15,3.15 0 0 0 0.328,-0.053c0.445,-0.063 0.879,-0.137 1.303,-0.243c-0.53,0.095 -1.06,0.19 -1.621,0.286z"/>
		<path id="svg_6" fill="#bd202e" opacity="0.35"
			  d="m89.072,72.162s0,0.01 0,0c-0.01,0 -0.01,0 -0.01,0.01a3.15,3.15 0 0 0 0.328,-0.053c0.445,-0.063 0.879,-0.137 1.303,-0.243c-0.53,0.095 -1.06,0.19 -1.621,0.286z"/>
		<path id="svg_7" transform="translate(-0.07400000095367432,0.00800000037997961) scale(0.10592000186443329) "
			  fill="url(#l)"
			  d="m768.90936,440.87674c15,-28.1 30.2,-55.5 45.5,-82.1c15.9,-27.8 32.1,-54.6 48.4,-80.6c0.9,-1.5 2,-3.1 2.9,-4.6c16.1,-25.5 32.4,-50.1 48.7,-73.5l-49.3,-93.2c-3.7,4.5 -7.4,9.1 -11.2,13.9c-14.3,17.8 -29,36.8 -44.2,57.1c-17.1,22.8 -34.6,47.2 -52.5,72.8c-16.4,23.6 -33.2,48.3 -50,74c-14.3,21.8 -28.5,44.2 -42.7,67.2c-0.5,0.8 -1,1.7 -1.5,2.6l64.3,127c13.6,-27.5 27.6,-54.4 41.6,-80.6z"/>
		<path id="svg_8" transform="translate(-0.07400000095367432,0.00800000037997961) scale(0.10592000186443329) "
			  fill="url(#m)"
			  d="m476.10936,1156.07674c-8.5,23.3 -17.1,47.2 -25.6,71.5c-0.1,0.3 -0.2,0.7 -0.4,1c-1.2,3.4 -2.5,6.9 -3.6,10.3c-5.8,16.4 -10.8,31.2 -22.3,64.7c18.9,8.6 34.1,31.4 48.5,57.2c-1.5,-26.7 -12.5,-51.8 -33.6,-71.2c93.3,4.2 173.7,-19.4 215.3,-87.6c3.7,-6.1 7.1,-12.4 10.2,-19.3c-18.9,24 -42.4,34.1 -86.5,31.7c-0.1,0 -0.2,0.1 -0.3,0.1c0.1,0 0.2,-0.1 0.3,-0.1c65,-29.1 97.5,-57 126.4,-103.2c6.8,-11 13.5,-22.9 20.3,-36.2c-56.8,58.3 -122.5,74.9 -191.8,62.3l-52,5.7c-1.7,4.4 -3.2,8.7 -4.9,13.1z"/>
		<path id="svg_9" transform="translate(-0.07400000095367432,0.00800000037997961) scale(0.10592000186443329) "
			  fill="url(#n)"
			  d="m500.40936,1039.77674c11.2,-29 22.8,-58.4 34.6,-88c11.4,-28.4 23,-57 35,-85.6c12,-28.6 24.2,-57.5 36.6,-86.3c12.6,-29.3 25.6,-58.5 38.9,-87.6c13.1,-28.8 26.3,-57.4 39.8,-85.6c4.8,-10.2 9.8,-20.4 14.7,-30.5c8.5,-17.5 17.1,-34.9 25.8,-52.1c0.5,-0.9 0.9,-1.9 1.4,-2.8l-64.3,-127c-1,1.7 -2.1,3.5 -3.2,5.1c-15,24.5 -29.9,49.5 -44.5,75c-14.8,25.8 -29.3,52.1 -43.5,78.8c-11.9,22.5 -23.6,45.1 -35.1,68.1c-2.3,4.6 -4.5,9.3 -6.8,13.9c-14,28.9 -26.6,56.6 -38.1,83.5c-13,30.3 -24.4,59.3 -34.3,86.8c-6.6,18.1 -12.5,35.5 -18,52.3c-4.5,14.3 -8.7,28.7 -12.9,43c-9.6,33.6 -17.9,67.2 -24.7,100.6l64.6,127.5c8.5,-22.8 17.3,-46 26.3,-69.4c2.7,-6.7 5.1,-13.3 7.7,-19.7z"/>
		<path id="svg_10" transform="translate(-0.07400000095367432,0.00800000037997961) scale(0.10592000186443329) "
			  fill="url(#o)"
			  d="m401.10936,1005.67674c-8.1,40.8 -13.9,81.4 -16.8,121.8l-0.3,4.2c-20.2,-32.3 -74.1,-63.8 -74,-63.5c38.7,56 68,111.6 72.3,166.2c-20.7,4.2 -49,-1.9 -81.7,-13.9c34.1,31.4 59.7,40 69.8,42.4c-31.4,2 -64,23.5 -96.9,48.3c48.1,-19.6 87,-27.4 114.8,-21.1c-44.2,125 -88.4,263 -132.7,409.6c13.6,-4 21.7,-13.2 26.2,-25.5c7.9,-26.5 60.2,-200.7 142.3,-429.4c2.4,-6.5 4.7,-13.1 7.1,-19.6c0.6,-1.9 1.3,-3.7 2,-5.4c8.6,-24 17.7,-48.5 26.9,-73.5c2.1,-5.7 4.2,-11.4 6.4,-17.1c0,-0.1 0.1,-0.2 0.1,-0.3l-64.7,-127.5c-0.2,1.3 -0.5,2.8 -0.8,4.3z"/>
		<path id="svg_11" transform="translate(-0.07400000095367432,0.00800000037997961) scale(0.10592000186443329) "
			  fill="url(#p)"
			  d="m737.20936,531.87674c-1.9,3.8 -3.7,7.6 -5.6,11.4c-5.6,11.5 -11.2,23.2 -17,35.2c-6.2,13 -12.4,26.2 -18.7,39.8c-3.2,6.8 -6.4,13.7 -9.6,20.7c-9.6,20.9 -19.3,42.5 -29.2,64.8c-12.1,27.3 -24.6,55.8 -37.1,85.4c-11.9,28.2 -24.2,57.3 -36.4,87.5c-11.7,28.6 -23.5,58.2 -35.5,88.6c-10.7,27.1 -21.5,55.1 -32.3,83.8c-0.5,1.3 -1,2.8 -1.5,4.1c-10.8,28.5 -21.7,57.8 -32.6,87.8c-0.2,0.7 -0.5,1.3 -0.7,2.1l52,-5.7c-1,-0.2 -2.1,-0.3 -3.1,-0.5c62.1,-7.7 144.8,-54.2 198.1,-111.5c24.6,-26.4 46.9,-57.6 67.5,-94.1c15.3,-27.1 29.8,-57.3 43.6,-90.6c12,-29.1 23.5,-60.7 34.6,-94.8c-14.3,7.5 -30.6,13.1 -48.6,16.9c-3.2,0.7 -6.4,1.3 -9.7,1.9c-3.3,0.6 -6.6,1.1 -10,1.5c0,0 0.1,0 0.1,-0.1c58,-22.3 94.5,-65.3 121,-118c-15.2,10.4 -40,24 -69.7,30.5c-4,0.9 -8.1,1.6 -12.3,2.3c-1,0.1 -2.1,0.3 -3.1,0.5l0.2,0c20.2,-8.4 37.1,-17.9 51.8,-29c3.2,-2.4 6.3,-4.8 9.1,-7.4c4.5,-3.9 8.7,-8 12.9,-12.2c2.6,-2.8 5.1,-5.6 7.6,-8.5c5.8,-6.9 11.2,-14.3 16.2,-22.3c1.5,-2.5 3.1,-4.9 4.5,-7.5c2,-3.7 3.8,-7.4 5.6,-10.9c8.1,-16.2 14.6,-30.8 19.7,-43.5c2.6,-6.4 4.8,-12.2 6.8,-17.8c0.8,-2.2 1.5,-4.3 2.2,-6.4c2.1,-6.1 3.7,-11.5 5,-16.3c2,-7.2 3.2,-12.9 3.8,-17c-2,1.5 -4.2,3.1 -6.8,4.6c-17.5,10.5 -47.5,19.9 -71.7,24.4l47.7,-5.2l-47.7,5.2c-0.3,0.1 -0.7,0.1 -1.1,0.2c-2.5,0.4 -4.8,0.8 -7.3,1.1l1.2,-0.6l-163.3,17.9c0,0.4 -0.3,1.1 -0.6,1.7z"/>
		<path id="svg_12" transform="translate(-0.07400000095367432,0.00800000037997961) scale(0.10592000186443329) "
			  fill="url(#q)"
			  d="m921.00936,201.87674c-14.5,22.3 -30.3,47.6 -47.5,76.3c-0.9,1.4 -1.9,3.1 -2.7,4.5c-14.7,24.8 -30.3,52 -46.9,81.9c-14.2,25.8 -29,53.4 -44.4,83.1c-13.4,25.9 -27.2,53.4 -41.5,82.5l163.3,-17.9c47.6,-21.9 68.8,-41.6 89.4,-70.3c5.4,-7.9 11,-16.1 16.4,-24.7c16.8,-26.2 33.2,-55 47.9,-83.7c14.2,-27.7 26.7,-55.1 36.3,-79.9c6.1,-15.7 11,-30.3 14.4,-43.2c3,-11.3 5.3,-22.1 7.1,-32.4c-63.3,10.9 -141.2,21.3 -191.8,23.8z"/>
		<path id="svg_13" fill="#bd202e"
			  d="m86.297,80.985c-0.35,0.064 -0.7,0.117 -1.06,0.16c0.36,-0.033 0.72,-0.096 1.06,-0.16z"/>
		<path id="svg_14" fill="#bd202e" opacity="0.35"
			  d="m86.297,80.985c-0.35,0.064 -0.7,0.117 -1.06,0.16c0.36,-0.033 0.72,-0.096 1.06,-0.16z"/>
		<path id="svg_15" transform="translate(-0.07400000095367432,0.00800000037997961) scale(0.10592000186443329) "
			  fill="url(#r)" d="m815.40936,764.47674c-3.3,0.6 -6.6,1.1 -10,1.5c3.4,-0.3 6.8,-0.9 10,-1.5z"/>
		<path id="svg_16" fill="#bd202e"
			  d="m89.061,72.172c0.106,-0.01 0.223,-0.031 0.329,-0.053c-0.106,0.011 -0.212,0.043 -0.329,0.053z"/>
		<path id="svg_17" fill="#bd202e" opacity="0.35"
			  d="m89.061,72.172c0.106,-0.01 0.223,-0.031 0.329,-0.053c-0.106,0.011 -0.212,0.043 -0.329,0.053z"/>
		<path id="svg_18" transform="translate(-0.07400000095367432,0.00800000037997961) scale(0.10592000186443329) "
			  fill="url(#s)" d="m841.50936,681.27674c1,-0.1 2.1,-0.3 3.1,-0.5c-1,0.1 -2,0.4 -3.1,0.5z"/>
		<path id="svg_19" fill="#bd202e" d="m89.061,72.172c0.01,0 0.01,-0.01 0,0c0.01,-0.01 0.01,0 0,0z"/>
		<path id="svg_20" fill="#bd202e" opacity="0.35"
			  d="m89.061,72.172c0.01,0 0.01,-0.01 0,0c0.01,-0.01 0.01,0 0,0z"/>
		<path id="svg_21" transform="translate(-0.07400000095367432,0.00800000037997961) scale(0.10592000186443329) "
			  fill="url(#t)" d="m841.50936,681.27674c0.1,0 0.1,-0.1 0,0c0.1,-0.1 0.1,0 0,0z"/>
		<path id="svg_25" fill="none"
			  d="m96.042,54.197c0.032,-0.01 0.074,-0.01 0.116,-0.021l-0.752,0.085l-0.127,0.063c0.244,-0.053 0.509,-0.095 0.763,-0.127zm-5.349,17.689c-0.424,0.096 -0.858,0.17 -1.303,0.244c0.445,-0.074 0.879,-0.159 1.303,-0.244zm-36.29,39.669c0.053,-0.137 0.106,-0.296 0.159,-0.434c1.154,-3.04 2.298,-5.995 3.421,-8.877c1.26,-3.23 2.51,-6.355 3.76,-9.384a879.56,879.56 0 0 1 3.857,-9.27a544.935,544.935 0 0 1 3.93,-9.046a591.173,591.173 0 0 1 3.093,-6.864c0.339,-0.741 0.678,-1.472 1.017,-2.192a414.66,414.66 0 0 1 1.98,-4.216c0.604,-1.26 1.197,-2.5 1.801,-3.729c0.201,-0.402 0.392,-0.805 0.593,-1.207c0.032,-0.064 0.064,-0.127 0.096,-0.202l-0.646,0.064l-0.509,-1.006c-0.053,0.095 -0.095,0.2 -0.148,0.296c-0.911,1.833 -1.833,3.665 -2.733,5.519c-0.52,1.08 -1.038,2.16 -1.557,3.23a643.202,643.202 0 0 0 -4.216,9.068a726.095,726.095 0 0 0 -4.12,9.279a736.497,736.497 0 0 0 -3.877,9.141c-1.26,3.04 -2.5,6.07 -3.708,9.067a730.917,730.917 0 0 0 -3.665,9.322c-0.275,0.699 -0.53,1.387 -0.805,2.076a762.835,762.835 0 0 0 -2.785,7.351l0.805,1.589l0.72,-0.074c0.021,-0.074 0.053,-0.138 0.074,-0.223c1.176,-3.156 2.33,-6.26 3.464,-9.279l-0.001,0.001z"/>
		<path id="svg_26" fill="#bd202e"
			  d="m87.324,80.795c-0.667,0.116 -1.345,0.243 -2.055,0.36c0,0 -0.01,0 -0.01,0.01l1.059,-0.158c0.328,-0.075 0.667,-0.138 1.006,-0.212z"/>
		<path id="svg_27" fill="#bd202e" opacity="0.35"
			  d="m87.324,80.795c-0.667,0.116 -1.345,0.243 -2.055,0.36c0,0 -0.01,0 -0.01,0.01l1.059,-0.158c0.328,-0.075 0.667,-0.138 1.006,-0.212z"/>
		<path id="svg_28" fill="#bd202e"
			  d="m89.072,72.162s0,0.01 0,0c-0.01,0 -0.01,0 -0.01,0.01a3.15,3.15 0 0 0 0.328,-0.053c0.445,-0.063 0.879,-0.137 1.303,-0.243c-0.53,0.095 -1.06,0.19 -1.621,0.286z"/>
		<path id="svg_29" fill="#bd202e" opacity="0.35"
			  d="m89.072,72.162s0,0.01 0,0c-0.01,0 -0.01,0 -0.01,0.01a3.15,3.15 0 0 0 0.328,-0.053c0.445,-0.063 0.879,-0.137 1.303,-0.243c-0.53,0.095 -1.06,0.19 -1.621,0.286z"/>
		<path id="svg_36" fill="#bd202e"
			  d="m86.297,80.985c-0.35,0.064 -0.7,0.117 -1.06,0.16c0.36,-0.033 0.72,-0.096 1.06,-0.16z"/>
		<path id="svg_37" fill="#bd202e" opacity="0.35"
			  d="m86.297,80.985c-0.35,0.064 -0.7,0.117 -1.06,0.16c0.36,-0.033 0.72,-0.096 1.06,-0.16z"/>
		<path id="svg_38" transform="translate(-0.07400000095367432,0.00800000037997961) scale(0.10592000186443329) "
			  fill="url(#B)" d="m815.40936,764.47674c-3.3,0.6 -6.6,1.1 -10,1.5c3.4,-0.3 6.8,-0.9 10,-1.5z"/>
		<path id="svg_39" fill="#bd202e"
			  d="m89.061,72.172c0.106,-0.01 0.223,-0.031 0.329,-0.053c-0.106,0.011 -0.212,0.043 -0.329,0.053z"/>
		<path id="svg_40" fill="#bd202e" opacity="0.35"
			  d="m89.061,72.172c0.106,-0.01 0.223,-0.031 0.329,-0.053c-0.106,0.011 -0.212,0.043 -0.329,0.053z"/>
		<path id="svg_41" transform="translate(-0.07400000095367432,0.00800000037997961) scale(0.10592000186443329) "
			  fill="url(#C)" d="m841.50936,681.27674c1,-0.1 2.1,-0.3 3.1,-0.5c-1,0.1 -2,0.4 -3.1,0.5z"/>
		<path id="svg_42" fill="#bd202e" d="m89.061,72.172c0.01,0 0.01,-0.01 0,0c0.01,-0.01 0.01,0 0,0z"/>
		<path id="svg_43" fill="#bd202e" opacity="0.35"
			  d="m89.061,72.172c0.01,0 0.01,-0.01 0,0c0.01,-0.01 0.01,0 0,0z"/>
		<path id="svg_44" transform="translate(-0.07400000095367432,0.00800000037997961) scale(0.10592000186443329) "
			  fill="url(#D)" d="m841.50936,681.27674c0.1,0 0.1,-0.1 0,0c0.1,-0.1 0.1,0 0,0z"/>
	</g>
</svg>