<?xml version="1.0" encoding="utf-8"?>
<!-- Generator: Adobe Illustrator 21.0.0, SVG Export Plug-In . SVG Version: 6.00 Build 0)  -->
<svg version="1.1" id="Layer_1" xmlns="http://www.w3.org/2000/svg" x="0px" y="0px"
	 viewBox="0 0 300 300" style="enable-background:new 0 0 300 300;" xml:space="preserve">
<style type="text/css">
	.st0{fill:#262626;}
	.st1{fill:#FFFFFF;}
	.st2{fill:#019934;}
</style>
<path class="st0" d="M289.6,300H10.4C4.7,300,0,295.3,0,289.6V10.4C0,4.7,4.7,0,10.4,0h279.2c5.7,0,10.4,4.7,10.4,10.4v279.2
	C300,295.3,295.3,300,289.6,300z"/>
<polygon points="300,219.8 0,219.8 0,162.4 0,72.6 300,72.6 300,164.2 "/>
<g>
	<path class="st1" d="M38.8,25.8v6.1h43.3v-6.1H38.8z M88.2,25.8v6.1h61.7c0,0-6.3-6.1-14.6-6.1H88.2z M162,25.8v6.1h37.3l-2.2-6.1
		H162z M226.1,25.8l-2.2,6.1h37v-6.1H226.1z M38.8,37.6v6.1h43.3v-6.1H38.8z M88.2,37.7v6.1h68.8c0,0-0.8-4.7-2.2-6.1H88.2z
		 M162,37.7v6.1h41.4l-2.1-6.1H162z M221.7,37.7l-2.1,6.1h41.2v-6.1H221.7z M51.2,49.5v6.1H70v-6.1H51.2z M100.7,49.5v6.1h18.7v-6.1
		H100.7z M137.6,49.5v6.1h18.7c0,0,1.2-3.2,1.2-6.1H137.6z M174.5,49.5v6.1h33.2l-2.2-6.1H174.5z M217.6,49.5l-2.2,6.1h33.4v-6.1
		H217.6z M51.2,61.3v6.1H70v-6.1H51.2z M100.7,61.3v6.1h47.9c0,0,4-3.1,5.3-6.1H100.7z M174.5,61.3v6.1h18.7V64l1.2,3.4h34.3L230,64
		v3.4h18.7v-6.1h-35.2l-1.9,5.2l-1.9-5.2H174.5z M51.2,73.2v6.1H70v-6.1H51.2z M100.7,73.2v6.1h53.2c-1.3-3-5.3-6.1-5.3-6.1H100.7z
		 M174.5,73.2v6.1h18.7v-6.1H174.5z M196.6,73.2l2.3,6.1h25.7l2.2-6.1H196.6z M230,73.2v6.1h18.7v-6.1H230z M51.2,85v6.1H70V85H51.2
		z M100.7,85v6.1h18.7V85H100.7z M137.6,85v6.1h19.9c0-2.9-1.2-6.1-1.2-6.1H137.6z M174.5,85v6.1h18.7V85H174.5z M200.9,85l2.2,6.1
		h17.3l2.2-6.1H200.9z M230,85v6.1h18.7V85H230z M39.1,96.8v6.1h43.3v-6.1H39.1z M88.2,96.8v6.1h66.6c1.4-1.4,2.2-6.1,2.2-6.1H88.2z
		 M162.4,96.8v6.1h30.8v-6.1H162.4z M205.1,96.8l2.3,6.1h8.8l2.1-6.1H205.1z M230,96.8v6.1h31.2v-6.1H230z M39.1,108.7v6.1h43.3
		v-6.1H39.1z M88.2,108.7v6.1h47c8.3,0,14.6-6.1,14.6-6.1H88.2z M162.4,108.7v6.1h30.8v-6.1H162.4z M209.4,108.7l2.2,6.1l0.4,0
		l2.2-6.1H209.4z M230,108.7v6.1h31.2v-6.1H230z"/>
</g>
<g>
	<path class="st2" d="M289.1,300H10.9c-6,0-10.9-4.9-10.9-10.9V142.3l300-0.7v147.5C300,295.1,295.1,300,289.1,300z"/>
	<g>
		<path class="st1" d="M77.8,172c6.8,0,12.4,1.1,16.6,3.4c4.2,2.2,7.5,5.4,9.8,9.6c2.3,4.2,3.9,9.1,4.7,15
			c0.8,5.8,1.2,12.4,1.2,19.6c0,8.6-0.5,16-1.6,22.4c-1.1,6.3-2.9,11.6-5.4,15.7c-2.6,4.1-6,7.2-10.3,9.2c-4.3,2-9.7,3-16.3,3H45.6
			V172H77.8z M74,255.2c3.5,0,6.2-0.6,8.3-1.8c2.1-1.2,3.8-3.1,5-5.9s2.1-6.3,2.5-10.8c0.4-4.5,0.6-10,0.6-16.7
			c0-5.6-0.2-10.4-0.5-14.6c-0.4-4.2-1.1-7.7-2.3-10.5c-1.1-2.8-2.8-4.9-5.1-6.3c-2.2-1.4-5.2-2.1-9-2.1h-8.3v68.7H74z"/>
		<path class="st1" d="M156.1,172c4,0,7.7,0.4,11.1,1.2c3.4,0.8,6.4,2.2,8.8,4.1c2.5,1.9,4.4,4.5,5.7,7.7c1.4,3.2,2.1,7.1,2.1,11.8
			c0,5.3-1.2,9.8-3.7,13.6c-2.5,3.8-6.2,6.4-11.1,7.7v0.3c5.5,0.7,9.8,3.1,13,7c3.2,3.9,4.8,9.2,4.8,15.7c0,3.8-0.5,7.5-1.5,10.9
			c-1,3.5-2.7,6.5-5.1,9.1c-2.4,2.6-5.6,4.7-9.4,6.2c-3.9,1.6-8.7,2.3-14.4,2.3h-33.2V172H156.1z M148.4,212.1c5.5,0,9.5-1,12-2.9
			c2.5-2,3.8-5.3,3.8-9.9s-1.1-7.9-3.4-9.9c-2.3-1.9-5.9-2.9-10.8-2.9h-7.1v25.6H148.4z M150.5,255.2c4.7,0,8.6-1,11.5-3.1
			c2.9-2.1,4.4-6,4.4-11.6c0-2.8-0.4-5.2-1.2-7c-0.8-1.9-1.8-3.4-3.1-4.5c-1.3-1.1-2.9-1.9-4.7-2.4c-1.8-0.5-3.8-0.7-6-0.7h-8.5
			v29.4H150.5z"/>
		<path class="st1" d="M194.8,269.7c0-4.3,0.4-8.3,1.3-12c0.9-3.7,2.2-7.3,4-10.7c1.8-3.4,4-6.7,6.7-9.9c2.7-3.2,5.8-6.5,9.4-9.8
			l7.9-7.4c2.2-1.9,3.9-3.7,5.3-5.3c1.3-1.6,2.3-3.3,3.1-4.9c0.7-1.6,1.2-3.4,1.4-5.3c0.2-1.9,0.3-4.1,0.3-6.6c0-8-3.2-12-9.6-12
			c-2.5,0-4.4,0.5-5.8,1.5c-1.4,1-2.5,2.4-3.3,4.1c-0.8,1.7-1.3,3.7-1.5,6c-0.2,2.3-0.3,4.7-0.3,7.2h-18.9v-3.7c0-9,2.4-16,7.3-20.8
			c4.8-4.8,12.4-7.2,22.8-7.2c9.8,0,17.1,2.3,21.9,6.8c4.7,4.6,7.1,11.1,7.1,19.6c0,3.1-0.3,6-0.8,8.7c-0.5,2.7-1.4,5.3-2.6,7.7
			c-1.2,2.5-2.7,4.9-4.7,7.2c-1.9,2.3-4.2,4.7-7,7.2l-10.9,10.1c-2.9,2.6-5.2,5.2-6.8,7.7c-1.6,2.5-2.7,4.7-3.1,6.5h36.5v15.3H194.8
			z"/>
	</g>
</g>
</svg>
